<svg width="25px" height="32px" viewBox="0 0 25 32" version="1.1" xmlns="http://www.w3.org/2000/svg" xmlns:xlink="http://www.w3.org/1999/xlink">
    <!-- Generator: Sketch 51.2 (57519) - http://www.bohemiancoding.com/sketch -->
    <desc>Created with Sketch.</desc>
    <defs></defs>
    <g id="Website" stroke="none" stroke-width="1" fill="none" fill-rule="evenodd">
        <g id="Homepagina" transform="translate(-707.000000, -846.000000)" fill="#000000" fill-rule="nonzero">
            <g id="Header" transform="translate(20.000000, 20.000000)">
                <g id="arrow" transform="translate(687.000000, 826.000000)">
                    <path d="M12.4993839,31.9872119 C12.4165242,31.995662 12.3332127,32 12.2499012,32 C11.4499012,32 10.6499012,31.6 10.2499012,31 L0.249901182,19.2 C-0.150098818,18.2 -0.150098818,17 0.849901182,16.2 C1.64990118,15.4 3.04990118,15.6 3.64990118,16.4 L9.9733669,23.8393714 C10.0336797,23.8898173 10.092274,23.9434074 10.1488666,24 L10.2905592,24.2125388 L10.4499012,24.4 L10.4499012,2 C10.4499012,0.8 11.4499012,0 12.4499012,0 C12.4664721,0 12.4829666,0.000190690065 12.4993839,0.000569436944 C12.5158012,0.000190690065 12.5322958,0 12.5488666,0 C13.5488666,0 14.5488666,0.8 14.5488666,2 L14.5488666,24.4 L14.7082086,24.2125388 L14.8499012,24 C14.9064938,23.9434074 14.9650881,23.8898173 15.0254009,23.8393714 L21.3488666,16.4 C21.9488666,15.6 23.3488666,15.4 24.1488666,16.2 C25.1488666,17 25.1488666,18.2 24.7488666,19.2 L14.7488666,31 C14.3488666,31.6 13.5488666,32 12.7488666,32 C12.6655551,32 12.5822436,31.995662 12.4993839,31.9872119 Z" id="Combined-Shape"></path>
                </g>
            </g>
        </g>
    </g>
</svg>