
<svg width="105px" height="104px" viewBox="0 0 105 104" version="1.1" xmlns="http://www.w3.org/2000/svg" xmlns:xlink="http://www.w3.org/1999/xlink">
    <!-- Generator: Sketch 51.2 (57519) - http://www.bohemiancoding.com/sketch -->
    <desc>Created with Sketch.</desc>
    <defs></defs>
    <g id="Website" stroke="none" stroke-width="1" fill="none" fill-rule="evenodd">
        <g id="FIFA-events" transform="translate(-721.000000, -3469.000000)" fill="#FFFF00" fill-rule="nonzero">
            <g id="Waarom" transform="translate(20.000000, 2762.000000)">
                <g id="noun_event_1359569" transform="translate(701.000000, 707.000000)">
                    <polygon id="Shape" points="77.2413793 53.8431867 71.909693 48.2758621 45.3027754 73.682406 32.0121951 60.4262588 26.5517241 65.8778654 45.1868692 84.4827586"></polygon>
                    <path d="M28.3993115,2.33798617e-15 L24.9655766,2.33798617e-15 C19.9750517,0 15.929432,4.12488317 15.929432,9.21318443 L15.929432,10.5293536 L14.1996558,10.5293536 C6.35740243,10.5293536 0,17.0113129 0,25.0072149 L0,89.3152422 C0,97.3111442 6.35740243,103.793103 14.1996558,103.793103 L90.8003442,103.793103 C98.6425976,103.793103 105,97.3111442 105,89.3152422 L105,25.0203766 C105,21.180609 103.503969,17.4981084 100.841017,14.7829827 C98.1780651,12.067857 94.5663271,10.5425153 90.8003442,10.5425153 L89.070568,10.5425153 L89.070568,9.22634612 C89.070568,4.13804486 85.0249483,0.013161692 80.0344234,0.013161692 L76.6006885,0.013161692 C71.6101636,0.013161692 67.5645439,4.13804486 67.5645439,9.22634612 L67.5645439,10.5425153 L37.4354561,10.5425153 L37.4354561,9.22634612 C37.4388829,6.78057806 36.4883763,4.43378586 34.7933989,2.70313094 C33.0984215,0.972476019 30.7980843,-2.49568551e-06 28.3993115,2.33798617e-15 Z M23.66179,9.21318443 C23.66179,8.48628425 24.2397357,7.89701523 24.9526678,7.89701523 L28.3993115,7.89701523 C29.1122437,7.89701523 29.6901893,8.48628425 29.6901893,9.21318443 L29.6901893,19.7425381 C29.6901893,20.4694382 29.1122437,21.0587073 28.3993115,21.0587073 L24.9655766,21.0587073 C24.2526445,21.0587073 23.6746988,20.4694382 23.6746988,19.7425381 L23.66179,9.21318443 Z M97.2418244,89.3152422 C97.2418244,92.9497431 94.3520961,95.8960882 90.7874355,95.8960882 L14.1996558,95.8960882 C10.6349952,95.8960882 7.74526678,92.9497431 7.74526678,89.3152422 L7.74526678,44.9076932 L97.2547332,44.9076932 L97.2418244,89.3152422 Z M75.2969019,9.21318443 C75.2969019,8.48628425 75.8748476,7.89701523 76.5877797,7.89701523 L80.0344234,7.89701523 C80.7473555,7.89701523 81.3253012,8.48628425 81.3253012,9.21318443 L81.3253012,19.7425381 C81.3253012,20.4694382 80.7473555,21.0587073 80.0344234,21.0587073 L76.6006885,21.0587073 C75.8877563,21.0587073 75.3098107,20.4694382 75.3098107,19.7425381 L75.2969019,9.21318443 Z M67.5516351,18.4263689 L67.5516351,19.7425381 C67.5516351,24.8308393 71.5972548,28.9557225 76.5877797,28.9557225 L80.0344234,28.9557225 C85.0249483,28.9557225 89.070568,24.8308393 89.070568,19.7425381 L89.070568,18.4263689 L90.7874355,18.4263689 C94.3520961,18.4263689 97.2418244,21.372714 97.2418244,25.0072149 L97.2418244,36.9843546 L7.74526678,36.9843546 L7.74526678,25.0072149 C7.74526678,21.372714 10.6349952,18.4263689 14.1996558,18.4263689 L15.9165232,18.4263689 L15.9165232,19.7425381 C15.9165232,24.8308393 19.962143,28.9557225 24.9526678,28.9557225 L28.3993115,28.9557225 C33.3898364,28.9557225 37.4354561,24.8308393 37.4354561,19.7425381 L37.4354561,18.4263689 L67.5516351,18.4263689 Z" id="Shape"></path>
                </g>
            </g>
        </g>
    </g>
</svg>