
<svg width="105px" height="120px" viewBox="0 0 105 120" version="1.1" xmlns="http://www.w3.org/2000/svg" xmlns:xlink="http://www.w3.org/1999/xlink">
    <!-- Generator: Sketch 51.2 (57519) - http://www.bohemiancoding.com/sketch -->
    <desc>Created with Sketch.</desc>
    <defs></defs>
    <g id="Website" stroke="none" stroke-width="1" fill="none" fill-rule="evenodd">
        <g id="FIFA-events" transform="translate(-720.000000, -3151.000000)" fill="#FFFF00" fill-rule="nonzero">
            <g id="user-astronaut-solid" transform="translate(720.000000, 3151.000000)">
                <path d="M15,52.5 L18.1640625,52.5 C23.953125,65.7421875 37.125,75 52.5,75 C67.875,75 81.046875,65.7421875 86.8359375,52.5 L90,52.5 C92.0625,52.5 93.75,50.8125 93.75,48.75 L93.75,26.25 C93.75,24.1875 92.0625,22.5 90,22.5 L86.8359375,22.5 C81.046875,9.2578125 67.875,0 52.5,0 C37.125,0 23.953125,9.2578125 18.1640625,22.5 L15,22.5 C12.9375,22.5 11.25,24.1875 11.25,26.25 L11.25,48.75 C11.25,50.8125 12.9375,52.5 15,52.5 Z M24.375,31.875 C24.375,26.6953125 29.4140625,22.5 35.625,22.5 L69.375,22.5 C75.5859375,22.5 80.625,26.6953125 80.625,31.875 L80.625,37.5 C80.625,49.921875 70.546875,60 58.125,60 L46.875,60 C34.453125,60 24.375,49.921875 24.375,37.5 L24.375,31.875 Z M41.25,48.75 L44.0625,40.3125 L52.5,37.5 L44.0625,34.6875 L41.25,26.25 L38.4375,34.6875 L30,37.5 L38.4375,40.3125 L41.25,48.75 Z M76.78125,75.328125 C69.7734375,79.8515625 61.453125,82.5 52.5,82.5 C43.546875,82.5 35.2265625,79.8515625 28.21875,75.328125 C12.3984375,76.9921875 0,90.234375 0,106.5 L0,108.75 C0,114.960938 5.0390625,120 11.25,120 L30,120 L30,105 C30,100.851562 33.3515625,97.5 37.5,97.5 L67.5,97.5 C71.6484375,97.5 75,100.851562 75,105 L75,120 L93.75,120 C99.9609375,120 105,114.960938 105,108.75 L105,106.5 C105,90.234375 92.6015625,76.9921875 76.78125,75.328125 Z M63.75,105 C61.6875,105 60,106.6875 60,108.75 C60,110.8125 61.6875,112.5 63.75,112.5 C65.8125,112.5 67.5,110.8125 67.5,108.75 C67.5,106.6875 65.8125,105 63.75,105 Z M41.25,105 C39.1875,105 37.5,106.6875 37.5,108.75 L37.5,120 L45,120 L45,108.75 C45,106.6875 43.3125,105 41.25,105 Z" id="Shape"></path>
            </g>
        </g>
    </g>
</svg>