
<svg width="105px" height="53px" viewBox="0 0 105 53" version="1.1" xmlns="http://www.w3.org/2000/svg" xmlns:xlink="http://www.w3.org/1999/xlink">
    <!-- Generator: Sketch 51.2 (57519) - http://www.bohemiancoding.com/sketch -->
    <desc>Created with Sketch.</desc>
    <defs></defs>
    <g id="Website" stroke="none" stroke-width="1" fill="none" fill-rule="evenodd">
        <g id="FIFA-events" transform="translate(-109.000000, -3496.000000)" fill="#FFFF00" fill-rule="nonzero">
            <g id="Waarom" transform="translate(20.000000, 2762.000000)">
                <g id="Materiaal-2" transform="translate(70.000000, 614.000000)">
                    <g id="gamepad-solid" transform="translate(19.000000, 120.000000)">
                        <path d="M78.75,0 L26.25,0 C11.746875,0 0,11.746875 0,26.25 C0,40.753125 11.746875,52.5 26.25,52.5 C33.6,52.5 40.228125,49.48125 44.9859375,44.625 L59.9976562,44.625 C64.7554688,49.48125 71.4,52.5 78.7335937,52.5 C93.2367187,52.5 104.983594,40.753125 104.983594,26.25 C104.983594,11.746875 93.253125,0 78.75,0 Z M42,29.53125 C42,30.6140625 41.1140625,31.5 40.03125,31.5 L31.5,31.5 L31.5,40.03125 C31.5,41.1140625 30.6140625,42 29.53125,42 L22.96875,42 C21.8859375,42 21,41.1140625 21,40.03125 L21,31.5 L12.46875,31.5 C11.3859375,31.5 10.5,30.6140625 10.5,29.53125 L10.5,22.96875 C10.5,21.8859375 11.3859375,21 12.46875,21 L21,21 L21,12.46875 C21,11.3859375 21.8859375,10.5 22.96875,10.5 L29.53125,10.5 C30.6140625,10.5 31.5,11.3859375 31.5,12.46875 L31.5,21 L40.03125,21 C41.1140625,21 42,21.8859375 42,22.96875 L42,29.53125 Z M72.1875,40.6875 C67.8398438,40.6875 64.3125,37.1601562 64.3125,32.8125 C64.3125,28.4648438 67.8398438,24.9375 72.1875,24.9375 C76.5351562,24.9375 80.0625,28.4648438 80.0625,32.8125 C80.0625,37.1601562 76.5351562,40.6875 72.1875,40.6875 Z M85.3125,27.5625 C80.9648438,27.5625 77.4375,24.0351562 77.4375,19.6875 C77.4375,15.3398438 80.9648438,11.8125 85.3125,11.8125 C89.6601562,11.8125 93.1875,15.3398438 93.1875,19.6875 C93.1875,24.0351562 89.6601562,27.5625 85.3125,27.5625 Z" id="Shape"></path>
                    </g>
                </g>
            </g>
        </g>
    </g>
</svg>