
<svg width="105px" height="63px" viewBox="0 0 105 63" version="1.1" xmlns="http://www.w3.org/2000/svg" xmlns:xlink="http://www.w3.org/1999/xlink">
    <!-- Generator: Sketch 51.2 (57519) - http://www.bohemiancoding.com/sketch -->
    <desc>Created with Sketch.</desc>
    <defs></defs>
    <g id="Website" stroke="none" stroke-width="1" fill="none" fill-rule="evenodd">
        <g id="FIFA-events" transform="translate(-114.000000, -3186.000000)" fill="#FFFF00" fill-rule="nonzero">
            <g id="users" transform="translate(114.000000, 3186.000000)">
                <path d="M52.5,0 C62.0139844,0 69.7265625,7.71257812 69.7265625,17.2265625 C69.7265625,26.7405469 62.0139844,34.453125 52.5,34.453125 C42.9860156,34.453125 35.2734375,26.7405469 35.2734375,17.2265625 C35.2734375,7.71257812 42.9860156,0 52.5,0 Z M71.1150234,35.6616094 L64.5554766,34.0216406 C56.4888516,39.8237109 46.7110547,38.5289297 40.4446875,34.0216406 L33.8851406,35.6616094 C28.6264453,36.9762422 24.9375,41.7009141 24.9375,47.121375 L24.9375,57.09375 C24.9375,60.3556406 27.5818594,63 30.84375,63 L74.15625,63 C77.4181406,63 80.0625,60.3556406 80.0625,57.09375 L80.0625,47.121375 C80.0625,41.7009141 76.3735547,36.9762422 71.1150234,35.6616094 Z M86.625,38.71875 C92.9676562,38.71875 98.109375,33.5770313 98.109375,27.234375 C98.109375,20.8917187 92.9676562,15.75 86.625,15.75 C80.2823438,15.75 75.140625,20.8917188 75.140625,27.234375 C75.140625,33.5770312 80.2823437,38.71875 86.625,38.71875 Z M18.375,38.71875 C24.7176563,38.71875 29.859375,33.5770313 29.859375,27.234375 C29.859375,20.8917187 24.7176563,15.75 18.375,15.75 C12.0323438,15.75 6.890625,20.8917188 6.890625,27.234375 C6.890625,33.5770312 12.0323438,38.71875 18.375,38.71875 Z M22.3125,57.09375 L22.3125,47.121375 C22.3125,44.4059766 23.0660391,41.8379062 24.3965859,39.6402891 C19.4766797,42.0552891 14.0055234,41.0689453 10.3380703,38.4311484 L5.96498438,39.5244609 C2.45929688,40.4007187 0,43.5507188 0,47.1641953 L0,53.8125 C0,55.9871484 1.76285156,57.75 3.9375,57.75 L22.3402266,57.75 C22.3226307,57.5316829 22.3133818,57.3127733 22.3125,57.09375 Z M99.0350156,39.5242969 L94.6619297,38.4309844 C90.0804844,41.7263437 84.6721641,41.5863984 80.5876641,39.6151875 C81.9277266,41.8183828 82.6875,44.3954766 82.6875,47.121375 L82.6875,57.09375 C82.6875,57.3147422 82.6763438,57.5331094 82.6597734,57.75 L101.0625,57.75 C103.237148,57.75 105,55.9871484 105,53.8125 L105,47.1641953 C105,43.5507187 102.540703,40.4007187 99.0350156,39.5242969 Z" id="Shape"></path>
            </g>
        </g>
    </g>
</svg>